HIERARCHY
ROOT Hips
{
	OFFSET 0.000000 71.427986 0.000000
	CHANNELS 6 Xposition Yposition Zposition Xrotation Yrotation Zrotation
	JOINT Pelvis
	{
		OFFSET 0.000000 0.000000 0.000000
		CHANNELS 3 Xrotation Yrotation Zrotation
		JOINT LeftUpLeg
		{
			OFFSET 6.797100 -2.508499 -1.318700
			CHANNELS 3 Xrotation Yrotation Zrotation
			JOINT LeftLeg
			{
				OFFSET 0.069008 -29.241863 0.690200
				CHANNELS 3 Xrotation Yrotation Zrotation
				JOINT LeftFoot
				{
					OFFSET -0.069008 -29.568123 -0.266800
					CHANNELS 3 Xrotation Yrotation Zrotation
					JOINT LeftToeBase
					{
						OFFSET 3.145500 -8.631000 16.059900
						CHANNELS 3 Xrotation Yrotation Zrotation
						End Site
						{
							OFFSET 0.000000 18.501587 0.000000
						}
					}
				}
			}
			JOINT Left_ShortSleeve
			{
				OFFSET 0.265923 -10.480953 1.153800
				CHANNELS 3 Xrotation Yrotation Zrotation
				End Site
				{
					OFFSET 1.725763 19.823879 0.000000
				}
			}
		}
		JOINT RightUpLeg
		{
			OFFSET -6.797100 -2.508499 -1.318700
			CHANNELS 3 Xrotation Yrotation Zrotation
			JOINT RightLeg
			{
				OFFSET -0.082453 -29.241932 0.688000
				CHANNELS 3 Xrotation Yrotation Zrotation
				JOINT RightFoot
				{
					OFFSET 0.082453 -29.568058 -0.264600
					CHANNELS 3 Xrotation Yrotation Zrotation
					JOINT RightToeBase
					{
						OFFSET -3.115300 -8.682800 16.113400
						CHANNELS 3 Xrotation Yrotation Zrotation
						End Site
						{
							OFFSET 0.000000 18.567114 0.000000
						}
					}
				}
			}
			JOINT Right_ShortSleeve
			{
				OFFSET -0.265923 -10.480953 1.153800
				CHANNELS 3 Xrotation Yrotation Zrotation
				End Site
				{
					OFFSET -1.725766 19.823910 0.000000
				}
			}
		}
	}
	JOINT Spine
	{
		OFFSET 0.000000 13.368103 0.470500
		CHANNELS 3 Xrotation Yrotation Zrotation
		JOINT Spine1
		{
			OFFSET 0.147000 13.837402 0.538800
			CHANNELS 3 Xrotation Yrotation Zrotation
			JOINT Spine2
			{
				OFFSET 0.168000 16.242897 -1.435500
				CHANNELS 3 Xrotation Yrotation Zrotation
				JOINT Neck
				{
					OFFSET 0.217200 18.631500 -1.679100
					CHANNELS 3 Xrotation Yrotation Zrotation
					JOINT Head
					{
						OFFSET 0.000000 6.599396 1.385900
						CHANNELS 3 Xrotation Yrotation Zrotation
						JOINT Hat
						{
							OFFSET -0.532200 27.220596 -10.096100
							CHANNELS 3 Xrotation Yrotation Zrotation
							End Site
							{
								OFFSET 0.000000 22.029861 0.000000
							}
						}
						JOINT HairD
						{
							OFFSET -10.777400 17.437393 -1.325900
							CHANNELS 3 Xrotation Yrotation Zrotation
							JOINT HairD1
							{
								OFFSET -3.290299 -11.051193 1.062200
								CHANNELS 3 Xrotation Yrotation Zrotation
								End Site
								{
									OFFSET 0.000000 11.579437 0.000000
								}
							}
						}
						JOINT HairB
						{
							OFFSET -10.777400 17.437393 1.467900
							CHANNELS 3 Xrotation Yrotation Zrotation
							JOINT HairB1
							{
								OFFSET -1.561200 -12.956299 3.590200
								CHANNELS 3 Xrotation Yrotation Zrotation
								End Site
								{
									OFFSET 0.000000 13.534866 0.000000
								}
							}
						}
						JOINT HairA
						{
							OFFSET 9.713100 17.437393 1.467900
							CHANNELS 3 Xrotation Yrotation Zrotation
							JOINT HairA1
							{
								OFFSET 1.561200 -12.956299 3.590200
								CHANNELS 3 Xrotation Yrotation Zrotation
								End Site
								{
									OFFSET 0.000000 13.534866 0.000000
								}
							}
						}
						JOINT HairC
						{
							OFFSET 9.713100 17.437393 -1.325900
							CHANNELS 3 Xrotation Yrotation Zrotation
							JOINT HairC1
							{
								OFFSET 3.290300 -11.051193 1.062200
								CHANNELS 3 Xrotation Yrotation Zrotation
								End Site
								{
									OFFSET 0.000000 11.579437 0.000000
								}
							}
						}
					}
				}
				JOINT LeftShoulder
				{
					OFFSET 5.101800 15.108002 -2.763700
					CHANNELS 3 Xrotation Yrotation Zrotation
					JOINT LeftArm
					{
						OFFSET 9.825497 2.506317 -1.597400
						CHANNELS 3 Xrotation Yrotation Zrotation
						JOINT LeftForeArm
						{
							OFFSET 21.966244 0.000000 0.000000
							CHANNELS 3 Xrotation Yrotation Zrotation
							JOINT LeftHand
							{
								OFFSET 33.879036 0.000000 0.000000
								CHANNELS 3 Xrotation Yrotation Zrotation
								JOINT LeftHandThumb1
								{
									OFFSET 6.715286 -2.359680 3.363841
									CHANNELS 3 Xrotation Yrotation Zrotation
									JOINT LeftHandThumb2
									{
										OFFSET 2.507072 -1.447464 1.447461
										CHANNELS 3 Xrotation Yrotation Zrotation
										JOINT LeftHandThumb3
										{
											OFFSET 2.898338 -1.673355 1.673357
											CHANNELS 3 Xrotation Yrotation Zrotation
											End Site
											{
												OFFSET -0.295959 3.727692 -0.131651
											}
										}
									}
								}
								JOINT LeftHandIndex1
								{
									OFFSET 14.190811 -0.254547 3.840278
									CHANNELS 3 Xrotation Yrotation Zrotation
									JOINT LeftHandIndex2
									{
										OFFSET 3.551727 0.000000 -0.000000
										CHANNELS 3 Xrotation Yrotation Zrotation
										JOINT LeftHandIndex3
										{
											OFFSET 2.894196 0.000000 0.000000
											CHANNELS 3 Xrotation Yrotation Zrotation
											End Site
											{
												OFFSET -1.000603 2.690872 0.366626
											}
										}
									}
								}
								JOINT LeftHandMiddle1
								{
									OFFSET 13.776489 0.000000 0.000000
									CHANNELS 3 Xrotation Yrotation Zrotation
									JOINT LeftHandMiddle2
									{
										OFFSET 3.438232 0.000000 0.000000
										CHANNELS 3 Xrotation Yrotation Zrotation
										JOINT LeftHandMiddle3
										{
											OFFSET 3.691551 0.000000 0.000000
											CHANNELS 3 Xrotation Yrotation Zrotation
											End Site
											{
												OFFSET -1.082298 3.499527 0.457670
											}
										}
									}
								}
								JOINT LeftHandRing1
								{
									OFFSET 13.966164 -0.268127 -3.067488
									CHANNELS 3 Xrotation Yrotation Zrotation
									JOINT LeftHandRing2
									{
										OFFSET 3.162567 0.000000 0.000000
										CHANNELS 3 Xrotation Yrotation Zrotation
										JOINT LeftHandRing3
										{
											OFFSET 3.324348 0.000000 0.000000
											CHANNELS 3 Xrotation Yrotation Zrotation
											End Site
											{
												OFFSET -0.861900 3.184998 0.405154
											}
										}
									}
								}
								JOINT LeftHandPinky1
								{
									OFFSET 13.131393 -0.168503 -5.746925
									CHANNELS 3 Xrotation Yrotation Zrotation
									JOINT LeftHandPinky2
									{
										OFFSET 2.849182 0.000000 0.000000
										CHANNELS 3 Xrotation Yrotation Zrotation
										JOINT LeftHandPinky3
										{
											OFFSET 2.805038 0.000000 0.000000
											CHANNELS 3 Xrotation Yrotation Zrotation
											End Site
											{
												OFFSET -0.882500 2.642609 0.325652
											}
										}
									}
								}
							}
							JOINT Left_Sleeve
							{
								OFFSET 6.592125 -0.646545 0.805568
								CHANNELS 3 Xrotation Yrotation Zrotation
								End Site
								{
									OFFSET -0.000179 20.275787 -0.000000
								}
							}
						}
					}
				}
				JOINT RightShoulder
				{
					OFFSET -5.731700 15.108002 -2.763700
					CHANNELS 3 Xrotation Yrotation Zrotation
					JOINT RightArm
					{
						OFFSET -9.825497 2.506317 -1.597400
						CHANNELS 3 Xrotation Yrotation Zrotation
						JOINT RightForeArm
						{
							OFFSET -21.966242 0.000000 0.000000
							CHANNELS 3 Xrotation Yrotation Zrotation
							JOINT RightHand
							{
								OFFSET -33.879032 0.000000 0.000000
								CHANNELS 3 Xrotation Yrotation Zrotation
								JOINT RightHandThumb1
								{
									OFFSET -6.715286 -2.359680 3.363841
									CHANNELS 3 Xrotation Yrotation Zrotation
									JOINT RightHandThumb2
									{
										OFFSET -2.507072 -1.447464 1.447461
										CHANNELS 3 Xrotation Yrotation Zrotation
										JOINT RightHandThumb3
										{
											OFFSET -2.898338 -1.673355 1.673357
											CHANNELS 3 Xrotation Yrotation Zrotation
											End Site
											{
												OFFSET 0.295959 3.727692 -0.131651
											}
										}
									}
								}
								JOINT RightHandIndex1
								{
									OFFSET -14.190811 -0.254547 3.840278
									CHANNELS 3 Xrotation Yrotation Zrotation
									JOINT RightHandIndex2
									{
										OFFSET -3.551727 0.000000 -0.000000
										CHANNELS 3 Xrotation Yrotation Zrotation
										JOINT RightHandIndex3
										{
											OFFSET -2.894196 0.000000 0.000000
											CHANNELS 3 Xrotation Yrotation Zrotation
											End Site
											{
												OFFSET 1.000603 2.690872 0.366626
											}
										}
									}
								}
								JOINT RightHandMiddle1
								{
									OFFSET -13.776489 0.000000 0.000000
									CHANNELS 3 Xrotation Yrotation Zrotation
									JOINT RightHandMiddle2
									{
										OFFSET -3.438232 0.000000 0.000000
										CHANNELS 3 Xrotation Yrotation Zrotation
										JOINT RightHandMiddle3
										{
											OFFSET -3.691551 0.000000 0.000000
											CHANNELS 3 Xrotation Yrotation Zrotation
											End Site
											{
												OFFSET 1.082298 3.499527 0.457670
											}
										}
									}
								}
								JOINT RightHandRing1
								{
									OFFSET -13.966164 -0.268127 -3.067488
									CHANNELS 3 Xrotation Yrotation Zrotation
									JOINT RightHandRing2
									{
										OFFSET -3.162567 0.000000 0.000000
										CHANNELS 3 Xrotation Yrotation Zrotation
										JOINT RightHandRing3
										{
											OFFSET -3.324348 0.000000 0.000000
											CHANNELS 3 Xrotation Yrotation Zrotation
											End Site
											{
												OFFSET 0.861900 3.184998 0.405154
											}
										}
									}
								}
								JOINT RightHandPinky1
								{
									OFFSET -13.131393 -0.168503 -5.746925
									CHANNELS 3 Xrotation Yrotation Zrotation
									JOINT RightHandPinky2
									{
										OFFSET -2.849182 0.000000 0.000000
										CHANNELS 3 Xrotation Yrotation Zrotation
										JOINT RightHandPinky3
										{
											OFFSET -2.805038 0.000000 0.000000
											CHANNELS 3 Xrotation Yrotation Zrotation
											End Site
											{
												OFFSET 0.882500 2.642609 0.325652
											}
										}
									}
								}
							}
							JOINT Right_Sleeve
							{
								OFFSET -6.592125 -0.646545 0.805568
								CHANNELS 3 Xrotation Yrotation Zrotation
								End Site
								{
									OFFSET 0.000179 20.275787 -0.000000
								}
							}
						}
					}
				}
				JOINT Bind_Right_JacketString
				{
					OFFSET -3.534800 11.969597 7.200700
					CHANNELS 3 Xrotation Yrotation Zrotation
					JOINT Bind_Right_JacketString1
					{
						OFFSET -0.319900 -6.102600 2.794100
						CHANNELS 3 Xrotation Yrotation Zrotation
						End Site
						{
							OFFSET 0.000000 6.719452 0.000000
						}
					}
				}
				JOINT Bind_Left_JacketString
				{
					OFFSET 2.904800 11.969597 7.200700
					CHANNELS 3 Xrotation Yrotation Zrotation
					JOINT Bind_Left_JacketString1
					{
						OFFSET 0.364800 -5.904503 3.186800
						CHANNELS 3 Xrotation Yrotation Zrotation
						End Site
						{
							OFFSET 0.000000 6.719513 0.000000
						}
					}
				}
				JOINT HairE
				{
					OFFSET 5.915200 17.612701 -11.592200
					CHANNELS 3 Xrotation Yrotation Zrotation
					JOINT HairE1
					{
						OFFSET 0.289200 -7.171898 -1.284500
						CHANNELS 3 Xrotation Yrotation Zrotation
						End Site
						{
							OFFSET 0.000000 7.291756 0.000000
						}
					}
				}
				JOINT HairF
				{
					OFFSET -0.864800 17.612701 -11.592200
					CHANNELS 3 Xrotation Yrotation Zrotation
					JOINT HairF1
					{
						OFFSET 0.000000 -14.087097 -2.127501
						CHANNELS 3 Xrotation Yrotation Zrotation
						End Site
						{
							OFFSET 0.000000 14.246841 0.000000
						}
					}
				}
				JOINT HairG
				{
					OFFSET -8.087700 17.612701 -11.592200
					CHANNELS 3 Xrotation Yrotation Zrotation
					JOINT HairG1
					{
						OFFSET -0.293600 -6.081398 -0.910100
						CHANNELS 3 Xrotation Yrotation Zrotation
						End Site
						{
							OFFSET 0.000000 6.156120 0.000000
						}
					}
				}
			}
		}
	}
	JOINT Pouch
	{
		OFFSET 0.000000 4.394501 10.847300
		CHANNELS 3 Xrotation Yrotation Zrotation
		End Site
		{
			OFFSET 0.000000 21.880577 0.000000
		}
	}
	JOINT Bag
	{
		OFFSET -13.229000 4.813004 -0.593300
		CHANNELS 3 Xrotation Yrotation Zrotation
		End Site
		{
			OFFSET 0.000000 21.880577 0.000000
		}
	}
	JOINT OccupyGuyFacialAnim_Joint
	{
		OFFSET 1.000000 -70.206398 -1.655000
		CHANNELS 3 Xrotation Yrotation Zrotation
		End Site
		{
			OFFSET 0.000000 21.880577 0.000000
		}
	}
}
MOTION
Frames: 4
Frame Time: 0.033333
-0.075108 67.181458 0.963101 -1.488834 5.490979 2.914868 0.000000 0.000000 0.000000 -19.981611 -5.861666 9.908006 27.240316 -0.652796 -1.035103 -6.248543 -2.486886 -13.047171 -0.000000 0.000000 -0.000000 0.000002 -0.000000 -0.000000 -18.496400 -13.327115 -18.682429 40.409568 0.577601 1.504830 -20.043050 -8.432140 8.948298 0.000000 -0.000002 -0.000000 -0.000001 0.000001 0.000001 5.548604 0.002587 -0.433177 11.097200 0.009759 -0.734748 11.097199 0.009761 -0.734748 -10.509538 -1.525002 -3.378796 -17.396371 -3.946724 2.467853 0.000000 0.000000 -0.000000 0.000000 0.000000 -0.000000 0.000000 0.000000 -0.000000 0.000000 0.000000 -0.000000 0.000000 0.000000 -0.000000 0.000000 0.000000 -0.000000 0.000000 0.000000 -0.000000 0.000000 0.000000 -0.000000 0.000000 0.000000 -0.000000 9.458475 -6.444351 -14.996457 -9.681613 10.606888 -35.776305 0.002043 -55.259307 0.168649 23.869047 -12.513384 16.449922 7.350866 -14.484198 -10.934827 -1.067066 0.182832 1.946078 -0.000001 -0.000000 0.000001 5.776116 -9.584507 -10.641317 0.033764 0.666513 -10.636477 0.000003 0.000002 -0.000002 1.641870 7.127204 -4.239644 -0.187954 -0.789342 -15.969040 0.000004 -0.000001 0.000002 1.677297 11.039963 -8.046068 -0.183076 -2.876856 -23.912154 0.000001 -0.000000 -0.000003 0.734576 28.047564 -16.218766 -0.849552 -6.142164 -29.148263 -0.000001 -0.000001 -0.000003 0.000003 -0.000000 -0.000002 -8.748805 -25.656016 -2.247834 -12.629124 6.268378 62.693712 -0.210354 114.391079 0.221773 -38.068917 18.047018 -8.750678 28.820181 6.808677 -14.431035 0.073709 -2.141550 -1.907837 0.000001 0.000003 0.000000 -0.338066 8.930298 13.236816 0.191797 -1.297616 21.915369 -0.000002 -0.000001 -0.000003 -5.019938 6.557937 31.510651 -4.002576 3.019752 97.316214 0.000003 0.000000 0.000001 -10.851440 5.502641 37.634848 -5.804116 6.639828 86.643477 -0.000001 0.000003 0.000002 -2.774544 5.215331 41.351782 -0.757808 11.630451 46.251203 -0.000000 0.000002 -0.000003 -0.000002 -0.000000 -0.000001 0.000002 -0.000001 0.000000 0.000002 -0.000001 0.000000 0.000002 -0.000001 0.000000 0.000002 -0.000001 0.000000 0.000002 -0.000001 0.000000 0.000002 -0.000001 0.000000 0.000002 -0.000001 0.000000 0.000002 -0.000001 0.000000 0.000002 -0.000001 0.000000 0.000002 -0.000001 0.000000 0.000000 0.000000 0.000000 0.000000 0.000000 0.000000 0.000000 0.000000 0.000000 
-0.088101 67.144135 1.034501 -1.512410 5.086111 2.844245 0.000000 -0.000000 -0.000000 -19.970222 -5.508104 10.210240 27.567354 -0.666418 -1.048188 -6.541565 -2.527945 -13.210096 0.000000 -0.000000 0.000000 -0.000000 0.000000 -0.000001 -18.269897 -12.156480 -18.134729 40.701709 0.583989 1.514750 -20.233911 -9.230364 9.039449 0.000000 0.000002 -0.000000 -0.000001 -0.000000 -0.000002 5.490715 0.030848 -0.427836 10.981547 0.065001 -0.730694 10.981547 0.065000 -0.730692 -10.627358 -1.486727 -3.423251 -16.837229 -3.808749 2.467569 -0.000000 -0.000000 0.000000 -0.000000 -0.000000 0.000000 -0.000000 -0.000000 0.000000 -0.000000 -0.000000 0.000000 -0.000000 -0.000000 0.000000 -0.000000 -0.000000 0.000000 -0.000000 -0.000000 0.000000 -0.000000 -0.000000 0.000000 -0.000000 -0.000000 0.000000 9.120533 -6.493475 -15.266427 -9.091218 9.979291 -35.096364 0.001785 -55.240156 0.166874 22.898100 -12.293516 16.453091 7.272387 -14.516397 -10.933718 -1.067353 0.183059 1.945642 0.000000 0.000001 -0.000003 5.761015 -9.620032 -10.692274 0.033195 0.666700 -10.647961 0.000003 0.000001 0.000000 1.640901 7.125478 -4.221732 -0.188438 -0.791238 -15.992948 0.000002 -0.000002 -0.000001 1.673088 11.047498 -7.996145 -0.185633 -2.880271 -23.951204 0.000001 -0.000001 0.000002 0.724887 28.041687 -16.196544 -0.847968 -6.140634 -29.131413 -0.000002 0.000002 0.000001 0.000001 -0.000001 0.000003 -8.631856 -24.897228 -1.977614 -12.981012 5.796961 62.313038 -0.209251 114.079035 0.218508 -36.600996 17.936683 -9.914997 28.881089 6.881212 -14.449427 0.054742 -2.096233 -1.902565 0.000002 -0.000000 0.000003 -0.349850 8.935202 13.292132 0.191772 -1.297604 21.914771 0.000001 0.000002 0.000001 -4.998189 6.532273 31.469700 -4.002626 3.019753 97.318721 0.000001 0.000001 -0.000001 -10.838537 5.468592 37.681228 -5.804267 6.639851 86.645096 0.000000 -0.000000 -0.000000 -2.750264 5.164858 41.442210 -0.755826 11.628992 46.242122 -0.000000 0.000002 -0.000001 0.000002 -0.000001 0.000000 0.000001 0.000000 -0.000000 -0.000001 -0.000000 -0.000000 0.000001 0.000000 -0.000000 0.000001 0.000000 -0.000000 0.000001 0.000000 -0.000000 -0.000001 -0.000000 -0.000000 0.000001 0.000000 -0.000000 0.000001 0.000000 -0.000000 0.000001 0.000000 -0.000000 -0.000001 -0.000000 -0.000000 0.000000 -0.000000 -0.000000 0.000000 -0.000000 -0.000000 0.000000 -0.000000 -0.000000 
-0.099704 67.029739 1.151361 -1.546637 4.076372 2.813815 -0.000000 -0.000000 -0.000000 -20.341756 -4.576042 10.726868 28.888162 -0.658885 -1.098556 -6.964139 -2.618785 -12.623488 0.000000 -0.000000 -0.000000 -0.000000 -0.000000 -0.000000 -18.036052 -9.357091 -17.062712 41.591983 0.599460 1.545159 -20.575074 -10.938269 9.282895 -0.000000 0.000001 0.000000 -0.000000 0.000001 -0.000000 5.295282 0.077645 -0.435397 10.590890 0.156322 -0.747556 10.590890 0.156322 -0.747556 -10.710408 -1.405923 -3.689848 -15.226548 -3.612675 2.939554 -0.000000 0.000000 -0.000000 -0.000000 0.000000 -0.000000 -0.000000 0.000000 -0.000000 -0.000000 0.000000 -0.000000 0.000000 0.000000 -0.000000 -0.000000 0.000000 -0.000000 0.000000 0.000000 -0.000000 -0.000000 0.000000 -0.000000 -0.000000 0.000000 -0.000000 8.150890 -6.653972 -16.202494 -8.052604 8.975681 -33.693631 0.001837 -54.940901 0.161372 21.675634 -11.613011 15.375625 7.207191 -14.539395 -10.914221 -1.066624 0.182511 1.946786 0.000000 0.000001 -0.000004 5.763834 -9.606951 -10.684024 0.033888 0.666512 -10.633916 0.000003 -0.000001 0.000003 1.641533 7.139829 -4.235654 -0.188896 -0.792954 -16.014750 0.000001 -0.000002 0.000000 1.670031 11.035662 -7.976159 -0.186439 -2.881360 -23.963543 0.000001 0.000000 0.000001 0.705621 28.027427 -16.150759 -0.847703 -6.140366 -29.128411 0.000002 0.000001 -0.000000 0.000001 0.000002 0.000001 -8.269620 -22.811536 -1.395346 -13.939209 4.775349 61.634924 -0.206586 112.877981 0.209607 -32.971382 18.140906 -12.852377 28.923396 6.891456 -14.440902 0.064258 -2.118953 -1.905209 -0.000000 0.000000 0.000002 -0.357236 8.939048 13.325872 0.191771 -1.297571 21.914611 -0.000001 0.000000 -0.000003 -4.990030 6.514480 31.481944 -4.003043 3.019716 97.336466 -0.000000 -0.000002 0.000001 -10.795498 5.420869 37.647128 -5.805310 6.639940 86.655170 0.000000 -0.000003 -0.000001 -2.722073 5.119159 41.487187 -0.744382 11.620752 46.190554 -0.000000 -0.000001 0.000004 0.000002 -0.000002 0.000001 0.000001 -0.000000 0.000000 0.000001 -0.000000 -0.000000 0.000001 -0.000000 0.000000 0.000001 -0.000000 0.000000 0.000001 -0.000000 0.000000 0.000001 -0.000000 -0.000000 0.000001 -0.000000 0.000000 0.000001 -0.000000 0.000000 0.000001 -0.000000 0.000000 0.000001 -0.000000 -0.000000 -0.000000 -0.000000 -0.000000 -0.000000 -0.000000 -0.000000 -0.000000 -0.000000 -0.000000 
-0.096907 66.861115 1.185583 -1.643563 2.846784 2.846338 0.000000 -0.000000 0.000000 -22.828702 -2.923099 11.380030 33.929890 -0.558863 -1.276429 -8.036245 -2.760897 -10.566257 0.000000 0.000000 0.000000 0.000002 0.000000 -0.000000 -17.910330 -5.713597 -15.702033 42.780606 0.526766 1.584710 -20.818418 -12.979397 9.406110 0.000000 -0.000001 -0.000000 -0.000002 0.000000 -0.000001 5.017849 0.117680 -0.447491 10.036226 0.232540 -0.775878 10.036237 0.232542 -0.775878 -10.909491 -1.442816 -4.123883 -12.737857 -3.534199 3.790312 -0.000000 0.000000 -0.000000 -0.000000 0.000000 -0.000000 -0.000000 0.000000 -0.000000 -0.000000 0.000000 -0.000000 -0.000000 -0.000000 -0.000000 -0.000000 0.000000 -0.000000 -0.000000 -0.000000 -0.000000 -0.000000 0.000000 -0.000000 -0.000000 0.000000 -0.000000 6.688179 -6.894385 -17.675869 -6.146288 7.360687 -31.282826 0.005550 -54.937479 0.156426 19.285691 -10.008547 13.310757 7.141662 -14.546983 -10.897695 -1.065756 0.181829 1.948131 -0.000001 0.000001 -0.000000 5.767312 -9.592230 -10.675984 0.034459 0.666342 -10.622581 0.000002 0.000002 0.000000 1.642444 7.141498 -4.252857 -0.189215 -0.794197 -16.030363 0.000002 0.000002 -0.000003 1.667416 11.027433 -7.962089 -0.185987 -2.880762 -23.956692 0.000002 0.000001 -0.000001 0.681568 28.010481 -16.093592 -0.846422 -6.139122 -29.114771 0.000001 -0.000001 0.000005 -0.000002 0.000000 -0.000003 -7.735443 -19.696469 -0.621366 -15.308062 3.265746 60.413904 -0.204867 111.049027 0.199299 -28.012156 18.222673 -17.205743 28.959831 6.868544 -14.442766 0.067289 -2.126195 -1.906057 0.000001 0.000001 0.000001 -0.358965 8.939262 13.334248 0.191802 -1.297619 21.915444 -0.000002 -0.000001 -0.000002 -4.989462 6.508812 31.496652 -4.003404 3.019681 97.352032 0.000007 -0.000002 0.000001 -10.760849 5.386389 37.607968 -5.806211 6.640030 86.663947 0.000002 -0.000000 0.000001 -2.690945 5.070302 41.527079 -0.720970 11.603859 46.084977 -0.000000 -0.000002 0.000002 0.000005 0.000002 -0.000001 0.000002 -0.000000 0.000000 0.000002 -0.000000 0.000000 0.000002 -0.000000 0.000000 0.000002 -0.000000 0.000000 0.000002 -0.000000 0.000000 0.000002 -0.000000 0.000000 0.000002 -0.000000 0.000000 0.000002 -0.000000 0.000000 0.000002 -0.000000 0.000000 0.000002 -0.000000 0.000000 0.000000 -0.000000 0.000000 0.000000 -0.000000 0.000000 0.000000 -0.000000 0.000000 
